<?xml version="1.0" encoding="utf-8"?>
<!-- Generator: Adobe Illustrator 19.0.0, SVG Export Plug-In . SVG Version: 6.00 Build 0)  -->
<svg version="1.1" id="Layer_1" xmlns="http://www.w3.org/2000/svg" xmlns:xlink="http://www.w3.org/1999/xlink" x="0px" y="0px"
	 viewBox="-359.3 264.9 78.7 40.7" style="enable-background:new -359.3 264.9 78.7 40.7;" xml:space="preserve">
<g>
	<path d="M-331.4,291.8c0.2-0.3,0.2-0.5,0.2-1c0-1.1,0.1-3.5,1.6-4.7c1.5-1.2,2-2.2,2.4-3.1c0.2-0.5,0.4-0.9,0.8-1.3
		c0.3-0.2,0.9-0.4,1.5-0.6c1-0.3,2.2-0.6,3.2-1.5c0.7-0.6,1.2-1.5,1.6-2.2c0.6-1.1,1-1.8,2-2c1.4-0.3,2.2,0.2,2.3,0.3
		c0.5,0.3,1.1,0.2,1.4-0.3c0.3-0.5,0.2-1.1-0.3-1.4c-0.1,0-1.6-1.1-3.8-0.6c-1.8,0.4-2.6,1.8-3.3,3c-0.4,0.6-0.7,1.2-1.2,1.6
		c-0.7,0.6-1.6,0.8-2.4,1c-0.9,0.2-1.7,0.5-2.3,1c-0.7,0.6-1,1.3-1.3,1.9c-0.4,0.8-0.7,1.5-1.8,2.3c-2.2,1.7-2.3,4.8-2.4,6.2
		c0,0.1,0,0.2,0,0.3c-0.1,0.4,0.1,0.9,0.5,1.1c0.2,0.1,0.3,0.1,0.5,0.1C-331.9,292.3-331.5,292.2-331.4,291.8z"/>
	<path d="M-311.1,277.9C-311.1,277.9-311.2,277.9-311.1,277.9c-0.6,0-1,0.5-1,1c0,0.6-0.2,2.3-1.1,2.8c-2.6,1.4-2.2,3.8-1.5,5.9
		c0.1,0.3,0.3,0.9,0,1.2c-0.2,0.3-1,0.5-2,0.3c-3.9-0.7-5.3,1.3-5.8,2.5c-0.1,0.2-0.2,0.4-0.3,0.6c-0.4,1-1.1,3-2.1,2.9
		c-2-0.2-3.6,0-5.1,1.9c-0.5,0.6-0.9,0.5-1.2,0.4c-0.5-0.3-1.1-0.2-1.4,0.3c-0.3,0.5-0.2,1.1,0.3,1.4c0.3,0.2,0.9,0.4,1.5,0.4
		c0.7,0,1.6-0.3,2.3-1.2c0.9-1.1,1.6-1.3,3.3-1.1c2.5,0.2,3.6-2.6,4.2-4.2c0.1-0.2,0.2-0.4,0.2-0.6c0.2-0.4,0.8-1.8,3.7-1.3
		c1.7,0.3,3.1-0.1,3.9-1c0.5-0.6,0.9-1.5,0.3-3.1c-0.9-2.5-0.4-3,0.5-3.5c2.2-1.2,2.2-4.5,2.2-4.6
		C-310.2,278.3-310.6,277.9-311.1,277.9z"/>
	<path d="M-320.8,283.1c-0.9,0.2-2.6,0.9-2.9,2.8c-0.2,1-1.4,1.5-1.4,1.5c-0.5,0.2-0.8,0.7-0.6,1.3c0.1,0.4,0.5,0.7,0.9,0.7
		c0.1,0,0.2,0,0.3-0.1c0.1,0,2.4-0.8,2.8-3.1c0.1-0.9,1.2-1.1,1.2-1.1c0.5-0.1,0.9-0.6,0.8-1.2C-319.7,283.3-320.2,283-320.8,283.1z
		"/>
	<path d="M-343.4,280.4c0.2,0,0.4,0.1,0.7,0.1c0.9,0,2.1-0.3,2.9-1.3c0.5-0.6,1.3-0.3,1.4-0.3c0.5,0.2,1.1-0.1,1.3-0.6
		c0.2-0.5-0.1-1.1-0.6-1.3c-0.8-0.3-2.5-0.4-3.6,0.9c-0.5,0.7-1.7,0.5-1.7,0.5c-0.5-0.1-1.1,0.3-1.2,0.8S-344,280.3-343.4,280.4z"/>
	<path d="M-280.9,286.9c-0.4-0.7-1.3-2.4-0.9-3.7c0.5-2,0.1-3.2-1.7-4.9c-0.8-0.8-1.2-2.2-1.6-3.5c-0.3-1-0.6-1.9-1-2.4
		c-0.7-1-2.1-1.4-3.6-1.9c-0.8-0.2-1.6-0.5-2.2-0.8c-0.5-0.3-1-0.9-1.5-1.5c-0.9-1.1-2-2.5-3.8-2.5c-0.8,0-1.7-0.2-2.5-0.3
		c-1.9-0.3-3.6-0.6-4.6,0.1c-0.9,0.6-2.9,0.9-3.5,0.8c-1.2-0.2-3.2,0.9-4,2.6c-0.7-0.2-1.3-0.2-1.8,0c-0.7,0.3-2.9,0.4-4.1-0.1
		c-1.3-0.5-3,0.1-5,0.9c-0.4,0.2-0.9,0.3-1.3,0.5v-0.1c-0.5-0.6-1.1-1-1.6-1.1c-0.1-0.1-0.2-0.4-0.3-0.6c-0.5-0.8-1.2-2.1-2.7-2.8
		c-0.8-0.4-2-0.3-3.4-0.3c-1.3,0-2.7,0.1-3.7-0.2c-1.8-0.5-3.2,0.5-4.4,1.2c-0.7,0.5-1.3,0.9-1.9,1c-1.1,0-2,0-2.8,0
		c-1.6,0-3.1,0-4,0.7c-0.6,0.4-1.1,1.2-1.7,2c-0.8,1.1-1.6,2.4-2.6,2.9c-2.3,1.1-3,2-3.2,4.1c-0.1,1.3-1.5,2.7-2,3.2
		c-0.8,0.8-1,2.2-1,3.3c0,0.8,0.2,2.3,1.2,3.2c1.2,1,2.9,3.5,3,3.6c1.9,2.4,4.2,2.1,5.5,2c0.3,0,0.7-0.1,0.8-0.1
		c0.5,0.5,1.3,0.8,2.1,0.8c1.2,0,2.6-0.5,3.5-1c0.4-0.2,1.7-0.1,2.8,0c0.5,0,0.9,0.1,1.4,0.1c0.1,0.3,0.2,0.6,0.3,0.9
		c0.7,1.4,0.1,3.4-0.2,4.3c-0.3,1.1,0.2,2.6,0.8,3.7c0.4,0.8,1.4,2.1,2.9,2.4c1.7,0.4,4.8,1.8,4.8,1.8h0.1c0.9,0.4,1.7,0.5,2.4,0.5
		c1.8,0,3.1-0.9,4-1.6c0.3-0.2,0.7-0.5,0.8-0.6c2,0.7,4.2-1.6,5.2-3.1c0.3-0.5,1.6-1.1,2.8-1.6c0.9-0.4,1.9-0.9,2.9-1.4
		c1.6-1,2-2.2,2.3-3.2c0.2-0.8,0.4-1.2,0.9-1.6c1-0.7,1.8-1.4,2.3-2.3c0.6,0.6,1.3,1.2,2.3,1.5c1,0.3,1.9,0.6,2.8,0.8
		c1.1,0.3,2.3,0.5,2.7,0.9c1.1,1.2,3.5,2.8,5.2,1.9c0.2,0,0.5,0.2,0.8,0.3c0.7,0.3,1.7,0.8,2.9,0.8c0.9,0,1.9-0.3,3-1
		c0,0,2.4-1.8,3.9-2.5c1.3-0.6,1.9-1.9,2.2-2.7C-280.6,289.3-280.4,287.8-280.9,286.9z M-339.2,290.1c-0.4,0-0.7-0.1-1.1-0.1
		c-1.6-0.1-3-0.3-3.9,0.2c-1.3,0.7-2.9,0.9-3.2,0.6c-0.7-0.8-1.6-0.6-2.5-0.5c-1.2,0.2-2.5,0.3-3.7-1.2c-0.1-0.1-1.9-2.7-3.2-3.9
		c-0.3-0.3-0.5-1-0.6-1.8c0-1,0.3-1.7,0.4-1.8c0.7-0.7,2.5-2.4,2.6-4.5c0.1-1.2,0.2-1.6,2-2.4c1.5-0.7,2.6-2.3,3.4-3.5
		c0.4-0.6,0.9-1.3,1.2-1.5c0.4-0.3,1.8-0.3,2.8-0.3c0.9,0,1.8,0,2.7-0.1c1-0.2,1.9-0.7,2.7-1.3c1.2-0.8,1.9-1.2,2.7-1
		c1.3,0.4,2.9,0.3,4.3,0.3c1,0,2.2-0.1,2.6,0.1c0.9,0.4,1.3,1.2,1.7,1.9c0.4,0.7,0.8,1.4,1.6,1.5l0,0c-0.9,0.5-1.5,1.5-2.1,2.5
		c-0.5-1.4-1.5-2.6-3.3-2.7c-1.5-0.1-2.6,0.5-3.5,1c-0.6,0.3-1.1,0.6-1.7,0.7c-0.7,0.2-1.5-0.1-2.3-0.3c-0.8-0.2-1.6-0.4-2.3-0.2
		c-0.9,0.2-1.4,0.6-1.9,1c-0.6,0.4-1.2,0.8-2.4,1c-2.5,0.4-4,2.8-4.7,3.8c-0.1,0.1-0.1,0.2-0.1,0.2c-0.3,0.3-0.4,0.8-0.1,1.2
		c0.2,0.3,0.5,0.5,0.9,0.5c0.2,0,0.3,0,0.5-0.1c0.3-0.2,0.4-0.3,0.6-0.7c0.5-0.8,1.6-2.7,3.2-2.9c1.7-0.2,2.6-0.9,3.3-1.4
		c0.4-0.3,0.7-0.5,1.2-0.6c0.3-0.1,0.9,0.1,1.4,0.2c0.9,0.2,2,0.5,3.2,0.3c0.9-0.2,1.6-0.5,2.3-0.9c0.9-0.4,1.6-0.8,2.6-0.8
		c1.8,0.1,1.8,3,1.8,3.1c0,0.1,0,0.1,0,0.2c-0.1,0.1-0.1,0.2-0.2,0.2c-0.6,0.5-1.4,0.9-2.3,1.4c-1.5,0.8-3,1.6-3.5,2.8
		c-0.3,0.7-0.4,1.7-0.5,2.8c0,0.2,0,0.5-0.1,0.7c-0.1-0.1-0.3-0.2-0.4-0.3c-2.8-2.3-4.8-1.4-5.8-0.6c-0.1,0.1-0.3,0.2-0.5,0.4
		c-0.7,0.6-2.1,1.8-2.8,1.3c-1.5-1-2.9-1.6-4.9-0.8c-0.4,0.2-0.8,0.1-0.9-0.2c-0.3-0.5-0.9-0.7-1.3-0.4c-0.5,0.3-0.7,0.9-0.4,1.4
		c0.4,0.8,1.7,1.8,3.4,1.1c1.1-0.4,1.8-0.3,3,0.5c0.5,0.3,1,0.5,1.5,0.5c1.5,0,2.9-1.2,3.7-1.9c0.2-0.1,0.3-0.2,0.4-0.3
		c0.3-0.2,1.3-1,3.3,0.6c0.4,0.4,0.9,0.6,1.3,0.8c-0.1,0.6-0.3,1.1-0.6,1.5C-338.6,288.4-339,289.3-339.2,290.1z M-310.2,291
		c-1.2,0.8-1.5,1.8-1.7,2.7c-0.3,0.9-0.5,1.5-1.4,2s-1.8,0.9-2.7,1.3c-1.6,0.7-3,1.4-3.6,2.3c-0.9,1.4-2.3,2.5-2.9,2.4
		c-1-0.4-1.9,0.3-2.6,0.8c-1.1,0.8-2.3,1.7-4.4,0.8c-0.3-0.2-3.3-1.6-5.2-2c-0.5-0.1-1.1-0.7-1.6-1.5c-0.5-0.9-0.7-1.8-0.6-2.1
		c0.3-1.1,1.1-3.7,0.1-5.8c-0.6-1.2-0.7-1.7,0.6-3.6c1-1.5,1.2-3.6,1.4-5.2c0.1-0.9,0.2-1.8,0.4-2.2c0.3-0.6,1.5-1.3,2.6-1.9
		c0.9-0.5,1.8-1,2.5-1.6c0.9-0.7,1.4-1.7,1.9-2.7c0.7-1.4,1.2-2.3,2.2-2.5c1-0.2,2-0.6,3-1c1.3-0.5,3-1.1,3.6-0.9
		c1.7,0.7,4.4,0.5,5.5,0.1c0.4-0.1,2.2,0.4,2.8,1.6c0.4,1,1.3,1.5,2.1,1.9c1.1,0.7,2.1,1.2,2.4,3.1c0.5,3.4,0.2,5.6-1,6.5
		c-1.4,1.2-1.1,2.8-0.9,3.8c0,0.2,0.1,0.5,0.1,0.6C-308.1,289.2-308.9,290.1-310.2,291z M-282.9,289.7c-0.3,0.8-0.7,1.3-1.1,1.5
		c-1.6,0.7-4.2,2.6-4.2,2.7c-1.6,1.1-2.8,0.6-3.9,0c-0.8-0.4-1.7-0.8-2.6-0.3c-0.4,0.2-1.8-0.5-2.8-1.5c-0.8-0.8-2.1-1.1-3.7-1.4
		c-0.9-0.2-1.8-0.4-2.6-0.7c-1-0.4-1.7-1.1-2-1.7c0-0.3-0.1-0.7-0.1-1c-0.2-1-0.2-1.5,0.2-1.8c0.1-0.1,0.1-0.1,0.2-0.2
		c0.1,0.1,0.1,0.1,0.2,0.1c1.3,1,3.3,0.4,4.1,0.1c2.4-0.9,3.1,0.1,3.3,0.4c0.1,0.1,0.2,0.3,0.3,0.4c0.8,1.3,2.3,3.7,4.5,3
		c1.4-0.4,2.1-0.4,3,0.4c0.6,0.5,1.3,0.7,1.8,0.7c0.8,0,1.4-0.3,1.8-0.7c0.4-0.4,0.4-1,0-1.4c-0.4-0.4-1-0.4-1.4-0.1
		c-0.3,0.2-0.6,0.2-1-0.1c-1.7-1.4-3.2-1.3-4.9-0.8c-0.8,0.2-1.8-1.3-2.3-2.1c-0.1-0.2-0.2-0.4-0.3-0.5c-0.7-1-2.4-2.4-5.7-1.2
		c-1,0.4-1.9,0.4-2.1,0.2c-0.1-0.1-0.1-0.3-0.1-0.6c0.5-1.5,0.6-3.5,0.2-6.2c-0.4-2.9-2.1-3.8-3.3-4.6c-0.7-0.4-1.1-0.6-1.2-1
		c-0.3-0.8-1-1.5-1.7-2c0.4-0.9,1.5-1.4,1.9-1.4c1.1,0.2,3.5-0.2,4.9-1.1c0.4-0.3,2.1,0,3.2,0.2c0.9,0.2,1.9,0.3,2.8,0.3
		c0.9,0,1.4,0.7,2.3,1.8c0.6,0.8,1.3,1.6,2.2,2.1c0.8,0.4,1.7,0.7,2.5,0.9c1,0.3,2.3,0.7,2.6,1.2c0.2,0.3,0.5,1.1,0.7,1.8
		c0.4,1.5,1,3.3,2.2,4.4c1.5,1.4,1.5,1.8,1.2,2.9c-0.5,2,0.6,4.2,1.1,5.1C-282.6,288-282.6,288.8-282.9,289.7z"/>
	<path d="M-287.1,282.2c-0.3-1.2-1-4-3.3-5.1c-1.1-0.5-1.5-1.1-2-1.7c-0.4-0.5-0.8-1.1-1.6-1.5c-0.7-0.4-1.5-0.4-2.3-0.5
		c-0.8,0-1.6-0.1-2.3-0.5c-0.5-0.3-0.9-0.7-1.3-1.2c-0.8-0.9-1.7-2-3.5-2.1c-0.4,0-0.9,0-1.3,0.1c-0.5,0.1-0.9,0.7-0.8,1.2
		s0.7,0.9,1.2,0.8c0.2-0.1,0.5-0.1,0.8-0.1c0.8,0,1.3,0.5,2,1.4c0.5,0.6,1.1,1.2,1.8,1.7c1.1,0.6,2.2,0.7,3.1,0.7
		c0.6,0,1.1,0.1,1.4,0.2c0.4,0.2,0.6,0.5,0.9,0.9c0.5,0.7,1.1,1.5,2.7,2.3c1.4,0.7,2,2.8,2.2,3.8c0.1,0.4,0.2,0.7,0.4,0.9
		c0.2,0.2,0.5,0.3,0.7,0.3c0.2,0,0.5-0.1,0.7-0.3c0.3-0.3,0.4-0.8,0.2-1.2C-287.1,282.4-287.1,282.3-287.1,282.2z"/>
	<path d="M-294.9,280.5c0,0-1.1-0.2-1.4-1c-0.6-1.6-2.3-2.1-3.1-2c-0.5,0-1,0.5-1,1s0.5,1,1,1l0,0c0.1,0,0.9,0,1.2,0.7
		c0.6,1.5,2.2,2.1,3,2.3h0.1c0.5,0,0.9-0.4,1-0.9C-294,281.1-294.4,280.6-294.9,280.5z"/>
</g>
</svg>
